<?xml version="1.0" encoding="UTF-8" standalone="no"?>
<!DOCTYPE svg PUBLIC "-//W3C//DTD SVG 1.1//EN" "http://www.w3.org/Graphics/SVG/1.1/DTD/svg11.dtd">
<svg width="100%" height="100%" viewBox="0 0 49 77" version="1.1" xmlns="http://www.w3.org/2000/svg" xmlns:xlink="http://www.w3.org/1999/xlink" xml:space="preserve" xmlns:serif="http://www.serif.com/" style="fill-rule:evenodd;clip-rule:evenodd;stroke-linejoin:round;stroke-miterlimit:2;">
    <g transform="matrix(1,0,0,1,-3.28181,-13.4423)">
        <path d="M3.968,43.908C3.132,45.259 3.055,46.915 3.764,48.337L23.287,87.53C24.063,89.087 25.625,90.054 27.365,90.054C29.104,90.054 30.666,89.087 31.442,87.53L50.966,48.337C51.674,46.915 51.597,45.259 50.761,43.908C49.925,42.557 48.477,41.751 46.888,41.751L7.841,41.751C6.252,41.751 4.805,42.557 3.968,43.908ZM47.487,45.935C47.564,46.06 47.671,46.314 47.519,46.62L27.995,85.813C27.826,86.152 27.527,86.203 27.365,86.203C27.202,86.203 26.903,86.152 26.734,85.813L7.211,46.62C7.059,46.314 7.165,46.06 7.242,45.936C7.319,45.811 7.5,45.602 7.841,45.602L46.888,45.602C47.229,45.602 47.41,45.811 47.487,45.935ZM39.855,25.932C39.855,19.045 34.252,13.442 27.364,13.442C20.476,13.442 14.874,19.045 14.874,25.932C14.874,32.819 20.477,38.422 27.364,38.422C34.251,38.422 39.855,32.819 39.855,25.932ZM18.725,25.932C18.725,21.168 22.6,17.293 27.364,17.293C32.128,17.293 36.004,21.168 36.004,25.932C36.004,30.696 32.128,34.571 27.364,34.571C22.6,34.571 18.725,30.696 18.725,25.932Z" style="fill:white;fill-rule:nonzero;"/>
    </g>
</svg>
