<?xml version="1.0" encoding="UTF-8" standalone="no"?>
<!DOCTYPE svg PUBLIC "-//W3C//DTD SVG 1.1//EN" "http://www.w3.org/Graphics/SVG/1.1/DTD/svg11.dtd">
<svg width="100%" height="100%" viewBox="0 0 49 77" version="1.1" xmlns="http://www.w3.org/2000/svg" xmlns:xlink="http://www.w3.org/1999/xlink" xml:space="preserve" xmlns:serif="http://www.serif.com/" style="fill-rule:evenodd;clip-rule:evenodd;stroke-linejoin:round;stroke-miterlimit:2;">
    <g transform="matrix(1,0,0,1,-46.0806,-11.8317)">
        <g transform="matrix(1,0,0,1,-0.754274,0.688718)">
            <path d="M74.995,41.976C74.219,40.419 72.657,39.452 70.918,39.452C69.179,39.452 67.617,40.419 66.841,41.976L47.317,81.168C46.608,82.59 46.685,84.246 47.521,85.597C48.357,86.948 49.805,87.755 51.394,87.755L90.441,87.755C92.03,87.755 93.478,86.948 94.314,85.598C95.15,84.247 95.227,82.591 94.518,81.169L74.995,41.976ZM91.04,83.571C90.963,83.696 90.782,83.905 90.441,83.905L51.394,83.905C51.053,83.905 50.872,83.696 50.795,83.571C50.718,83.446 50.611,83.192 50.764,82.886L70.287,43.693C70.456,43.354 70.755,43.303 70.917,43.303C71.08,43.303 71.378,43.354 71.547,43.693L91.07,82.886C91.223,83.191 91.117,83.446 91.04,83.571ZM83.408,23.633C83.408,16.746 77.805,11.143 70.918,11.143C64.031,11.143 58.428,16.746 58.428,23.633C58.428,30.52 64.031,36.123 70.918,36.123C77.805,36.123 83.408,30.52 83.408,23.633ZM62.278,23.633C62.278,18.869 66.153,14.994 70.917,14.994C75.681,14.994 79.556,18.869 79.556,23.633C79.556,28.397 75.681,32.272 70.917,32.272C66.153,32.272 62.278,28.397 62.278,23.633Z" style="fill:white;fill-rule:nonzero;"/>
        </g>
    </g>
</svg>
